<svg width="184" height="177" viewBox="0 0 184 177" fill="none" xmlns="http://www.w3.org/2000/svg">
<g id="Group">
<path id="Vector" d="M137.968 0.973907H46.5998C21.3576 0.973907 0.822388 21.5091 0.822388 46.7513V130.34C0.822388 155.583 21.3576 176.118 46.5998 176.118H137.968C163.211 176.118 183.746 155.583 183.746 130.34V46.7513C183.746 21.5091 163.211 0.973907 137.968 0.973907ZM16.9712 46.7513C16.9712 30.4163 30.2648 17.1227 46.5998 17.1227H137.968C154.303 17.1227 167.597 30.4163 167.597 46.7513V130.34C167.597 146.675 154.303 159.969 137.968 159.969H46.5998C30.2648 159.969 16.9712 146.675 16.9712 130.34V46.7513Z" fill="white"/>
<path id="Vector_2" d="M92.2842 131.116C115.757 131.116 134.865 112.019 134.865 88.5355C134.865 65.0519 115.768 45.9547 92.2842 45.9547C68.8006 45.9547 49.7034 65.0519 49.7034 88.5355C49.7034 112.019 68.8006 131.116 92.2842 131.116ZM92.2842 62.1139C106.861 62.1139 118.716 73.9695 118.716 88.5458C118.716 103.122 106.861 114.978 92.2842 114.978C77.7078 114.978 65.8522 103.122 65.8522 88.5458C65.8522 73.9695 77.7078 62.1139 92.2842 62.1139Z" fill="white"/>
<path id="Vector_3" d="M138.806 52.8343C145.127 52.8343 150.279 47.6928 150.279 41.3615C150.279 35.0303 145.138 29.8886 138.806 29.8886C132.475 29.8886 127.334 35.0303 127.334 41.3615C127.334 47.6928 132.475 52.8343 138.806 52.8343Z" fill="white"/>
</g>
</svg>
