<svg width="142" height="163" viewBox="0 0 142 163" fill="none" xmlns="http://www.w3.org/2000/svg">
<path id="Vector" d="M141.096 39.7237V67.604C136.224 67.1282 129.893 66.0212 122.889 63.4556C113.744 60.1038 106.937 55.5209 102.478 51.9725V108.323L102.364 108.147C102.437 109.264 102.478 110.402 102.478 111.55C102.478 139.534 79.7082 162.314 51.7141 162.314C23.7201 162.314 0.950317 139.534 0.950317 111.55C0.950317 83.5666 23.7201 60.7762 51.7141 60.7762C54.4556 60.7762 57.1454 60.9935 59.773 61.4176V88.8944C57.2488 87.9943 54.5383 87.5081 51.7141 87.5081C38.4619 87.5081 27.6719 98.2878 27.6719 111.55C27.6719 124.813 38.4619 135.592 51.7141 135.592C64.9663 135.592 75.7563 124.802 75.7563 111.55C75.7563 111.054 75.746 110.557 75.7149 110.061V0.556885H103.574C103.678 2.91559 103.771 5.29496 103.875 7.65366C104.061 12.2986 105.716 16.7575 108.602 20.4093C111.985 24.7026 116.982 29.6889 123.996 33.6718C130.565 37.3857 136.731 38.9892 141.096 39.7444V39.7237Z" fill="white"/>
</svg>
